<svg xmlns="http://www.w3.org/2000/svg" width="1200" height="1580" viewBox="0 0 1200 1580" role="img" aria-labelledby="title desc">
<title id="title">RubioKo — a connected tree of projects and technologies</title>
<desc id="desc">Full-stack developer and product builder. Branches connect frontend, backend, OmniBot, HiveScope, design tools and current focus. Blue pulses travel from the roots through the trunk to the leaves.</desc>
<defs>
 <linearGradient id="bg" x2="0.8" y2="1"><stop stop-color="#0D1117"/><stop offset=".5" stop-color="#071724"/><stop offset="1" stop-color="#0D1117"/></linearGradient>
 <linearGradient id="branch" x1="0" y1="1" x2="1" y2="0"><stop stop-color="#1F6FEB"/><stop offset=".6" stop-color="#58A6FF"/><stop offset="1" stop-color="#B8ECFF"/></linearGradient>
 <radialGradient id="halo"><stop stop-color="#1F6FEB" stop-opacity=".16"/><stop offset="1" stop-color="#1F6FEB" stop-opacity="0"/></radialGradient>
 <filter id="glow" x="-80%" y="-80%" width="260%" height="260%"><feGaussianBlur stdDeviation="4"/></filter>
 <pattern id="grid" width="60" height="60" patternUnits="userSpaceOnUse"><path d="M60 0H0V60" fill="none" stroke="#58A6FF" stroke-opacity=".035"/></pattern>
 <style>text{font-family:DejaVu Sans,Segoe UI,Arial,sans-serif} .heading{font-family:DejaVu Serif,Georgia,serif} @media(prefers-reduced-motion:reduce){.motion{display:none}}</style>
</defs>
<rect width="1200" height="1580" rx="16" fill="url(#bg)"/>
<rect width="1200" height="1580" rx="16" fill="url(#grid)"/>
<ellipse cx="600" cy="820" rx="420" ry="720" fill="url(#halo)"/>
<ellipse cx="600" cy="785" rx="525" ry="715" fill="none" stroke="#58A6FF" stroke-opacity=".07"/>
<text x="600" y="134" text-anchor="middle" class="heading" font-size="94" font-weight="700" fill="#F0F6FC">RubioKo</text>
<text x="600" y="194" text-anchor="middle" font-size="24" fill="#D5E3F1">Full-Stack Developer · Product Builder</text>
<path d="M340 233H565 M635 233H860" stroke="#58A6FF" stroke-opacity=".4"/>
<text x="600" y="277" text-anchor="middle" font-size="19" fill="#9FB7CA">Web platforms, automation &amp; thoughtful interfaces.</text>

<path d="M600 1280C548 1175 648 1060 592 946S639 724 604 626S581 430 600 340" fill="none" stroke="url(#branch)" stroke-width="12" opacity="0.08"/>
<path d="M600 1280C548 1175 648 1060 592 946S639 724 604 626S581 430 600 340" fill="none" stroke="url(#branch)" stroke-width="3" opacity="0.9"/>
<path d="M600 1290C525 1140 640 1070 575 945S635 729 590 620S565 440 600 340" fill="none" stroke="url(#branch)" stroke-width="1" opacity="0.4"/>
<path d="M600 1290C532 1140 647 1070 582 945S642 729 597 620S572 440 600 340" fill="none" stroke="url(#branch)" stroke-width="1" opacity="0.4"/>
<path d="M600 1290C548 1140 663 1070 598 945S658 729 613 620S588 440 600 340" fill="none" stroke="url(#branch)" stroke-width="1" opacity="0.4"/>
<path d="M600 1290C556 1140 671 1070 606 945S666 729 621 620S596 440 600 340" fill="none" stroke="url(#branch)" stroke-width="1" opacity="0.4"/>
<g class="motion"><circle opacity="0" r="7" fill="#58A6FF" filter="url(#glow)"><animateMotion path="M600 1280C548 1175 648 1060 592 946S639 724 604 626S581 430 600 340" dur="12s" begin="-0s" repeatCount="indefinite"/><animate attributeName="opacity" values="0;.7;.7;0" keyTimes="0;.08;.9;1" dur="12s" begin="-0s" repeatCount="indefinite"/></circle><circle opacity="0" r="2.8" fill="#D9F7FF"><animateMotion path="M600 1280C548 1175 648 1060 592 946S639 724 604 626S581 430 600 340" dur="12s" begin="-0s" repeatCount="indefinite"/><animate attributeName="opacity" values="0;1;1;0" keyTimes="0;.08;.9;1" dur="12s" begin="-0s" repeatCount="indefinite"/></circle></g>
<g class="motion"><circle opacity="0" r="7" fill="#58A6FF" filter="url(#glow)"><animateMotion path="M600 1280C548 1175 648 1060 592 946S639 724 604 626S581 430 600 340" dur="12s" begin="-6s" repeatCount="indefinite"/><animate attributeName="opacity" values="0;.7;.7;0" keyTimes="0;.08;.9;1" dur="12s" begin="-6s" repeatCount="indefinite"/></circle><circle opacity="0" r="2.8" fill="#D9F7FF"><animateMotion path="M600 1280C548 1175 648 1060 592 946S639 724 604 626S581 430 600 340" dur="12s" begin="-6s" repeatCount="indefinite"/><animate attributeName="opacity" values="0;1;1;0" keyTimes="0;.08;.9;1" dur="12s" begin="-6s" repeatCount="indefinite"/></circle></g>
<path d="M604 626C515 395 420 355 230 355" fill="none" stroke="url(#branch)" stroke-width="9" opacity="0.045"/>
<path d="M604 626C515 395 420 355 230 355" fill="none" stroke="url(#branch)" stroke-width="1.9" opacity="0.9"/>
<path d="M461.85 408.68Q446.85 383.68 437.85 356.68" fill="none" stroke="url(#branch)" stroke-width="1" opacity="0.65"/>
<g transform="translate(437.85 356.68) rotate(-25) scale(0.7)"><path d="M0 0C-17 -15 -17 -34 0 -51C17 -34 17 -15 0 0Z" fill="#123654" fill-opacity=".55" stroke="#84CDFF" stroke-width="1"/><path d="M0 0V-46M0 -13L-9 -26M0 -24L8 -36" fill="none" stroke="#84CDFF" stroke-width=".7" opacity=".6"/></g>
<path d="M390.26 373.49Q375.26 348.49 366.26 321.49" fill="none" stroke="url(#branch)" stroke-width="1" opacity="0.65"/>
<g transform="translate(366.26 321.49) rotate(-33) scale(0.7999999999999999)"><path d="M0 0C-17 -15 -17 -34 0 -51C17 -34 17 -15 0 0Z" fill="#123654" fill-opacity=".55" stroke="#84CDFF" stroke-width="1"/><path d="M0 0V-46M0 -13L-9 -26M0 -24L8 -36" fill="none" stroke="#84CDFF" stroke-width=".7" opacity=".6"/></g>
<path d="M314.27 358.69Q299.27 333.69 290.27 306.69" fill="none" stroke="url(#branch)" stroke-width="1" opacity="0.65"/>
<g transform="translate(290.27 306.69) rotate(-41) scale(0.8999999999999999)"><path d="M0 0C-17 -15 -17 -34 0 -51C17 -34 17 -15 0 0Z" fill="#123654" fill-opacity=".55" stroke="#84CDFF" stroke-width="1"/><path d="M0 0V-46M0 -13L-9 -26M0 -24L8 -36" fill="none" stroke="#84CDFF" stroke-width=".7" opacity=".6"/></g>
<g transform="translate(230 355) rotate(-30) scale(0.9)"><path d="M0 0C-17 -15 -17 -34 0 -51C17 -34 17 -15 0 0Z" fill="#123654" fill-opacity=".55" stroke="#84CDFF" stroke-width="1"/><path d="M0 0V-46M0 -13L-9 -26M0 -24L8 -36" fill="none" stroke="#84CDFF" stroke-width=".7" opacity=".6"/></g>
<g class="motion"><circle opacity="0" r="7" fill="#58A6FF" filter="url(#glow)"><animateMotion path="M604 626C515 395 420 355 230 355" dur="7.0s" begin="-0.0s" repeatCount="indefinite"/><animate attributeName="opacity" values="0;.7;.7;0" keyTimes="0;.08;.9;1" dur="7.0s" begin="-0.0s" repeatCount="indefinite"/></circle><circle opacity="0" r="2.8" fill="#D9F7FF"><animateMotion path="M604 626C515 395 420 355 230 355" dur="7.0s" begin="-0.0s" repeatCount="indefinite"/><animate attributeName="opacity" values="0;1;1;0" keyTimes="0;.08;.9;1" dur="7.0s" begin="-0.0s" repeatCount="indefinite"/></circle></g>
<circle cx="230" cy="355" r="4" fill="#A3E3FF"/>
<text x="80" y="463" class="heading" font-size="31" font-weight="700" fill="#F0F6FC">Frontend</text>
<text x="80" y="498" font-size="12" letter-spacing="2" fill="#77C5FF">01 / INTERFACES</text>
<text x="80" y="532" font-size="17" fill="#BCD0E0">React · TypeScript</text>
<text x="80" y="561" font-size="17" fill="#BCD0E0">Tailwind CSS · Vite</text>
<path d="M80 582H390" fill="none" stroke="url(#branch)" stroke-width="0.7" opacity="0.25"/>
<path d="M604 626C685 395 780 355 970 355" fill="none" stroke="url(#branch)" stroke-width="9" opacity="0.045"/>
<path d="M604 626C685 395 780 355 970 355" fill="none" stroke="url(#branch)" stroke-width="1.9" opacity="0.9"/>
<path d="M739.27 408.68Q754.27 383.68 763.27 356.68" fill="none" stroke="url(#branch)" stroke-width="1" opacity="0.65"/>
<g transform="translate(763.27 356.68) rotate(25) scale(0.7)"><path d="M0 0C-17 -15 -17 -34 0 -51C17 -34 17 -15 0 0Z" fill="#123654" fill-opacity=".55" stroke="#84CDFF" stroke-width="1"/><path d="M0 0V-46M0 -13L-9 -26M0 -24L8 -36" fill="none" stroke="#84CDFF" stroke-width=".7" opacity=".6"/></g>
<path d="M810.03 373.49Q825.03 348.49 834.03 321.49" fill="none" stroke="url(#branch)" stroke-width="1" opacity="0.65"/>
<g transform="translate(834.03 321.49) rotate(33) scale(0.7999999999999999)"><path d="M0 0C-17 -15 -17 -34 0 -51C17 -34 17 -15 0 0Z" fill="#123654" fill-opacity=".55" stroke="#84CDFF" stroke-width="1"/><path d="M0 0V-46M0 -13L-9 -26M0 -24L8 -36" fill="none" stroke="#84CDFF" stroke-width=".7" opacity=".6"/></g>
<path d="M885.76 358.69Q900.76 333.69 909.76 306.69" fill="none" stroke="url(#branch)" stroke-width="1" opacity="0.65"/>
<g transform="translate(909.76 306.69) rotate(41) scale(0.8999999999999999)"><path d="M0 0C-17 -15 -17 -34 0 -51C17 -34 17 -15 0 0Z" fill="#123654" fill-opacity=".55" stroke="#84CDFF" stroke-width="1"/><path d="M0 0V-46M0 -13L-9 -26M0 -24L8 -36" fill="none" stroke="#84CDFF" stroke-width=".7" opacity=".6"/></g>
<g transform="translate(970 355) rotate(30) scale(0.9)"><path d="M0 0C-17 -15 -17 -34 0 -51C17 -34 17 -15 0 0Z" fill="#123654" fill-opacity=".55" stroke="#84CDFF" stroke-width="1"/><path d="M0 0V-46M0 -13L-9 -26M0 -24L8 -36" fill="none" stroke="#84CDFF" stroke-width=".7" opacity=".6"/></g>
<g class="motion"><circle opacity="0" r="7" fill="#58A6FF" filter="url(#glow)"><animateMotion path="M604 626C685 395 780 355 970 355" dur="7.6s" begin="-1.4s" repeatCount="indefinite"/><animate attributeName="opacity" values="0;.7;.7;0" keyTimes="0;.08;.9;1" dur="7.6s" begin="-1.4s" repeatCount="indefinite"/></circle><circle opacity="0" r="2.8" fill="#D9F7FF"><animateMotion path="M604 626C685 395 780 355 970 355" dur="7.6s" begin="-1.4s" repeatCount="indefinite"/><animate attributeName="opacity" values="0;1;1;0" keyTimes="0;.08;.9;1" dur="7.6s" begin="-1.4s" repeatCount="indefinite"/></circle></g>
<circle cx="970" cy="355" r="4" fill="#A3E3FF"/>
<text x="795" y="463" class="heading" font-size="31" font-weight="700" fill="#F0F6FC">Backend &amp; Data</text>
<text x="795" y="498" font-size="12" letter-spacing="2" fill="#77C5FF">02 / SYSTEMS</text>
<text x="795" y="532" font-size="17" fill="#BCD0E0">Node.js · Python</text>
<text x="795" y="561" font-size="17" fill="#BCD0E0">PostgreSQL · SQLite · Supabase</text>
<path d="M795 582H1105" fill="none" stroke="url(#branch)" stroke-width="0.7" opacity="0.25"/>
<path d="M592 946C515 695 420 655 230 655" fill="none" stroke="url(#branch)" stroke-width="9" opacity="0.045"/>
<path d="M592 946C515 695 420 655 230 655" fill="none" stroke="url(#branch)" stroke-width="1.9" opacity="0.9"/>
<path d="M460.16 711.49Q445.16 686.49 436.16 659.49" fill="none" stroke="url(#branch)" stroke-width="1" opacity="0.65"/>
<g transform="translate(436.16 659.49) rotate(-25) scale(0.7)"><path d="M0 0C-17 -15 -17 -34 0 -51C17 -34 17 -15 0 0Z" fill="#123654" fill-opacity=".55" stroke="#84CDFF" stroke-width="1"/><path d="M0 0V-46M0 -13L-9 -26M0 -24L8 -36" fill="none" stroke="#84CDFF" stroke-width=".7" opacity=".6"/></g>
<path d="M389.83 674.21Q374.83 649.21 365.83 622.21" fill="none" stroke="url(#branch)" stroke-width="1" opacity="0.65"/>
<g transform="translate(365.83 622.21) rotate(-33) scale(0.7999999999999999)"><path d="M0 0C-17 -15 -17 -34 0 -51C17 -34 17 -15 0 0Z" fill="#123654" fill-opacity=".55" stroke="#84CDFF" stroke-width="1"/><path d="M0 0V-46M0 -13L-9 -26M0 -24L8 -36" fill="none" stroke="#84CDFF" stroke-width=".7" opacity=".6"/></g>
<path d="M314.22 658.77Q299.22 633.77 290.22 606.77" fill="none" stroke="url(#branch)" stroke-width="1" opacity="0.65"/>
<g transform="translate(290.22 606.77) rotate(-41) scale(0.8999999999999999)"><path d="M0 0C-17 -15 -17 -34 0 -51C17 -34 17 -15 0 0Z" fill="#123654" fill-opacity=".55" stroke="#84CDFF" stroke-width="1"/><path d="M0 0V-46M0 -13L-9 -26M0 -24L8 -36" fill="none" stroke="#84CDFF" stroke-width=".7" opacity=".6"/></g>
<g transform="translate(230 655) rotate(-30) scale(0.9)"><path d="M0 0C-17 -15 -17 -34 0 -51C17 -34 17 -15 0 0Z" fill="#123654" fill-opacity=".55" stroke="#84CDFF" stroke-width="1"/><path d="M0 0V-46M0 -13L-9 -26M0 -24L8 -36" fill="none" stroke="#84CDFF" stroke-width=".7" opacity=".6"/></g>
<g class="motion"><circle opacity="0" r="7" fill="#58A6FF" filter="url(#glow)"><animateMotion path="M592 946C515 695 420 655 230 655" dur="8.2s" begin="-2.8s" repeatCount="indefinite"/><animate attributeName="opacity" values="0;.7;.7;0" keyTimes="0;.08;.9;1" dur="8.2s" begin="-2.8s" repeatCount="indefinite"/></circle><circle opacity="0" r="2.8" fill="#D9F7FF"><animateMotion path="M592 946C515 695 420 655 230 655" dur="8.2s" begin="-2.8s" repeatCount="indefinite"/><animate attributeName="opacity" values="0;1;1;0" keyTimes="0;.08;.9;1" dur="8.2s" begin="-2.8s" repeatCount="indefinite"/></circle></g>
<circle cx="230" cy="655" r="4" fill="#A3E3FF"/>
<text x="80" y="763" class="heading" font-size="31" font-weight="700" fill="#F0F6FC">OmniBot</text>
<text x="80" y="798" font-size="12" letter-spacing="2" fill="#77C5FF">03 / OPEN SOURCE</text>
<text x="80" y="832" font-size="17" fill="#BCD0E0">Discord community tools</text>
<text x="80" y="861" font-size="17" fill="#BCD0E0">Moderation · Music · AI</text>
<path d="M80 882H390" fill="none" stroke="url(#branch)" stroke-width="0.7" opacity="0.25"/>
<path d="M592 946C685 695 780 655 970 655" fill="none" stroke="url(#branch)" stroke-width="9" opacity="0.045"/>
<path d="M592 946C685 695 780 655 970 655" fill="none" stroke="url(#branch)" stroke-width="1.9" opacity="0.9"/>
<path d="M737.59 711.49Q752.59 686.49 761.59 659.49" fill="none" stroke="url(#branch)" stroke-width="1" opacity="0.65"/>
<g transform="translate(761.59 659.49) rotate(25) scale(0.7)"><path d="M0 0C-17 -15 -17 -34 0 -51C17 -34 17 -15 0 0Z" fill="#123654" fill-opacity=".55" stroke="#84CDFF" stroke-width="1"/><path d="M0 0V-46M0 -13L-9 -26M0 -24L8 -36" fill="none" stroke="#84CDFF" stroke-width=".7" opacity=".6"/></g>
<path d="M809.59 674.21Q824.59 649.21 833.59 622.21" fill="none" stroke="url(#branch)" stroke-width="1" opacity="0.65"/>
<g transform="translate(833.59 622.21) rotate(33) scale(0.7999999999999999)"><path d="M0 0C-17 -15 -17 -34 0 -51C17 -34 17 -15 0 0Z" fill="#123654" fill-opacity=".55" stroke="#84CDFF" stroke-width="1"/><path d="M0 0V-46M0 -13L-9 -26M0 -24L8 -36" fill="none" stroke="#84CDFF" stroke-width=".7" opacity=".6"/></g>
<path d="M885.72 658.77Q900.72 633.77 909.72 606.77" fill="none" stroke="url(#branch)" stroke-width="1" opacity="0.65"/>
<g transform="translate(909.72 606.77) rotate(41) scale(0.8999999999999999)"><path d="M0 0C-17 -15 -17 -34 0 -51C17 -34 17 -15 0 0Z" fill="#123654" fill-opacity=".55" stroke="#84CDFF" stroke-width="1"/><path d="M0 0V-46M0 -13L-9 -26M0 -24L8 -36" fill="none" stroke="#84CDFF" stroke-width=".7" opacity=".6"/></g>
<g transform="translate(970 655) rotate(30) scale(0.9)"><path d="M0 0C-17 -15 -17 -34 0 -51C17 -34 17 -15 0 0Z" fill="#123654" fill-opacity=".55" stroke="#84CDFF" stroke-width="1"/><path d="M0 0V-46M0 -13L-9 -26M0 -24L8 -36" fill="none" stroke="#84CDFF" stroke-width=".7" opacity=".6"/></g>
<g class="motion"><circle opacity="0" r="7" fill="#58A6FF" filter="url(#glow)"><animateMotion path="M592 946C685 695 780 655 970 655" dur="8.8s" begin="-4.199999999999999s" repeatCount="indefinite"/><animate attributeName="opacity" values="0;.7;.7;0" keyTimes="0;.08;.9;1" dur="8.8s" begin="-4.199999999999999s" repeatCount="indefinite"/></circle><circle opacity="0" r="2.8" fill="#D9F7FF"><animateMotion path="M592 946C685 695 780 655 970 655" dur="8.8s" begin="-4.199999999999999s" repeatCount="indefinite"/><animate attributeName="opacity" values="0;1;1;0" keyTimes="0;.08;.9;1" dur="8.8s" begin="-4.199999999999999s" repeatCount="indefinite"/></circle></g>
<circle cx="970" cy="655" r="4" fill="#A3E3FF"/>
<text x="795" y="763" class="heading" font-size="31" font-weight="700" fill="#F0F6FC">HiveScope</text>
<text x="795" y="798" font-size="12" letter-spacing="2" fill="#77C5FF">04 / ALPHA</text>
<text x="795" y="832" font-size="17" fill="#BCD0E0">Multi-agent AI visualization</text>
<text x="795" y="861" font-size="17" fill="#BCD0E0">React · D3.js · WebSockets</text>
<path d="M795 882H1105" fill="none" stroke="url(#branch)" stroke-width="0.7" opacity="0.25"/>
<path d="M600 1240C515 995 420 955 230 955" fill="none" stroke="url(#branch)" stroke-width="9" opacity="0.045"/>
<path d="M600 1240C515 995 420 955 230 955" fill="none" stroke="url(#branch)" stroke-width="1.9" opacity="0.9"/>
<path d="M461.29 1010.65Q446.29 985.65 437.29 958.65" fill="none" stroke="url(#branch)" stroke-width="1" opacity="0.65"/>
<g transform="translate(437.29 958.65) rotate(-25) scale(0.7)"><path d="M0 0C-17 -15 -17 -34 0 -51C17 -34 17 -15 0 0Z" fill="#123654" fill-opacity=".55" stroke="#84CDFF" stroke-width="1"/><path d="M0 0V-46M0 -13L-9 -26M0 -24L8 -36" fill="none" stroke="#84CDFF" stroke-width=".7" opacity=".6"/></g>
<path d="M390.12 974.00Q375.12 949.00 366.12 922.00" fill="none" stroke="url(#branch)" stroke-width="1" opacity="0.65"/>
<g transform="translate(366.12 922.0) rotate(-33) scale(0.7999999999999999)"><path d="M0 0C-17 -15 -17 -34 0 -51C17 -34 17 -15 0 0Z" fill="#123654" fill-opacity=".55" stroke="#84CDFF" stroke-width="1"/><path d="M0 0V-46M0 -13L-9 -26M0 -24L8 -36" fill="none" stroke="#84CDFF" stroke-width=".7" opacity=".6"/></g>
<path d="M314.25 958.75Q299.25 933.75 290.25 906.75" fill="none" stroke="url(#branch)" stroke-width="1" opacity="0.65"/>
<g transform="translate(290.25 906.75) rotate(-41) scale(0.8999999999999999)"><path d="M0 0C-17 -15 -17 -34 0 -51C17 -34 17 -15 0 0Z" fill="#123654" fill-opacity=".55" stroke="#84CDFF" stroke-width="1"/><path d="M0 0V-46M0 -13L-9 -26M0 -24L8 -36" fill="none" stroke="#84CDFF" stroke-width=".7" opacity=".6"/></g>
<g transform="translate(230 955) rotate(-30) scale(0.9)"><path d="M0 0C-17 -15 -17 -34 0 -51C17 -34 17 -15 0 0Z" fill="#123654" fill-opacity=".55" stroke="#84CDFF" stroke-width="1"/><path d="M0 0V-46M0 -13L-9 -26M0 -24L8 -36" fill="none" stroke="#84CDFF" stroke-width=".7" opacity=".6"/></g>
<g class="motion"><circle opacity="0" r="7" fill="#58A6FF" filter="url(#glow)"><animateMotion path="M600 1240C515 995 420 955 230 955" dur="9.4s" begin="-5.6s" repeatCount="indefinite"/><animate attributeName="opacity" values="0;.7;.7;0" keyTimes="0;.08;.9;1" dur="9.4s" begin="-5.6s" repeatCount="indefinite"/></circle><circle opacity="0" r="2.8" fill="#D9F7FF"><animateMotion path="M600 1240C515 995 420 955 230 955" dur="9.4s" begin="-5.6s" repeatCount="indefinite"/><animate attributeName="opacity" values="0;1;1;0" keyTimes="0;.08;.9;1" dur="9.4s" begin="-5.6s" repeatCount="indefinite"/></circle></g>
<circle cx="230" cy="955" r="4" fill="#A3E3FF"/>
<text x="80" y="1063" class="heading" font-size="31" font-weight="700" fill="#F0F6FC">Design &amp; Tools</text>
<text x="80" y="1098" font-size="12" letter-spacing="2" fill="#77C5FF">05 / CRAFT</text>
<text x="80" y="1132" font-size="17" fill="#BCD0E0">UI/UX · Figma · Git</text>
<text x="80" y="1161" font-size="17" fill="#BCD0E0">Docker · GitHub Actions</text>
<path d="M80 1182H390" fill="none" stroke="url(#branch)" stroke-width="0.7" opacity="0.25"/>
<path d="M600 1240C685 995 780 955 970 955" fill="none" stroke="url(#branch)" stroke-width="9" opacity="0.045"/>
<path d="M600 1240C685 995 780 955 970 955" fill="none" stroke="url(#branch)" stroke-width="1.9" opacity="0.9"/>
<path d="M738.71 1010.65Q753.71 985.65 762.71 958.65" fill="none" stroke="url(#branch)" stroke-width="1" opacity="0.65"/>
<g transform="translate(762.71 958.65) rotate(25) scale(0.7)"><path d="M0 0C-17 -15 -17 -34 0 -51C17 -34 17 -15 0 0Z" fill="#123654" fill-opacity=".55" stroke="#84CDFF" stroke-width="1"/><path d="M0 0V-46M0 -13L-9 -26M0 -24L8 -36" fill="none" stroke="#84CDFF" stroke-width=".7" opacity=".6"/></g>
<path d="M809.88 974.00Q824.88 949.00 833.88 922.00" fill="none" stroke="url(#branch)" stroke-width="1" opacity="0.65"/>
<g transform="translate(833.88 922.0) rotate(33) scale(0.7999999999999999)"><path d="M0 0C-17 -15 -17 -34 0 -51C17 -34 17 -15 0 0Z" fill="#123654" fill-opacity=".55" stroke="#84CDFF" stroke-width="1"/><path d="M0 0V-46M0 -13L-9 -26M0 -24L8 -36" fill="none" stroke="#84CDFF" stroke-width=".7" opacity=".6"/></g>
<path d="M885.75 958.75Q900.75 933.75 909.75 906.75" fill="none" stroke="url(#branch)" stroke-width="1" opacity="0.65"/>
<g transform="translate(909.75 906.75) rotate(41) scale(0.8999999999999999)"><path d="M0 0C-17 -15 -17 -34 0 -51C17 -34 17 -15 0 0Z" fill="#123654" fill-opacity=".55" stroke="#84CDFF" stroke-width="1"/><path d="M0 0V-46M0 -13L-9 -26M0 -24L8 -36" fill="none" stroke="#84CDFF" stroke-width=".7" opacity=".6"/></g>
<g transform="translate(970 955) rotate(30) scale(0.9)"><path d="M0 0C-17 -15 -17 -34 0 -51C17 -34 17 -15 0 0Z" fill="#123654" fill-opacity=".55" stroke="#84CDFF" stroke-width="1"/><path d="M0 0V-46M0 -13L-9 -26M0 -24L8 -36" fill="none" stroke="#84CDFF" stroke-width=".7" opacity=".6"/></g>
<g class="motion"><circle opacity="0" r="7" fill="#58A6FF" filter="url(#glow)"><animateMotion path="M600 1240C685 995 780 955 970 955" dur="10.0s" begin="-7.0s" repeatCount="indefinite"/><animate attributeName="opacity" values="0;.7;.7;0" keyTimes="0;.08;.9;1" dur="10.0s" begin="-7.0s" repeatCount="indefinite"/></circle><circle opacity="0" r="2.8" fill="#D9F7FF"><animateMotion path="M600 1240C685 995 780 955 970 955" dur="10.0s" begin="-7.0s" repeatCount="indefinite"/><animate attributeName="opacity" values="0;1;1;0" keyTimes="0;.08;.9;1" dur="10.0s" begin="-7.0s" repeatCount="indefinite"/></circle></g>
<circle cx="970" cy="955" r="4" fill="#A3E3FF"/>
<text x="795" y="1063" class="heading" font-size="31" font-weight="700" fill="#F0F6FC">Current Focus</text>
<text x="795" y="1098" font-size="12" letter-spacing="2" fill="#77C5FF">06 / BUILDING</text>
<text x="795" y="1132" font-size="17" fill="#BCD0E0">Web platforms · Dashboards</text>
<text x="795" y="1161" font-size="17" fill="#BCD0E0">Automation workflows</text>
<path d="M795 1182H1105" fill="none" stroke="url(#branch)" stroke-width="0.7" opacity="0.25"/>
<g transform="translate(598 590) rotate(-48) scale(0.7)"><path d="M0 0C-17 -15 -17 -34 0 -51C17 -34 17 -15 0 0Z" fill="#123654" fill-opacity=".55" stroke="#84CDFF" stroke-width="1"/><path d="M0 0V-46M0 -13L-9 -26M0 -24L8 -36" fill="none" stroke="#84CDFF" stroke-width=".7" opacity=".6"/></g>
<g transform="translate(605 670) rotate(38) scale(0.7)"><path d="M0 0C-17 -15 -17 -34 0 -51C17 -34 17 -15 0 0Z" fill="#123654" fill-opacity=".55" stroke="#84CDFF" stroke-width="1"/><path d="M0 0V-46M0 -13L-9 -26M0 -24L8 -36" fill="none" stroke="#84CDFF" stroke-width=".7" opacity=".6"/></g>
<g transform="translate(599 875) rotate(-35) scale(0.7)"><path d="M0 0C-17 -15 -17 -34 0 -51C17 -34 17 -15 0 0Z" fill="#123654" fill-opacity=".55" stroke="#84CDFF" stroke-width="1"/><path d="M0 0V-46M0 -13L-9 -26M0 -24L8 -36" fill="none" stroke="#84CDFF" stroke-width=".7" opacity=".6"/></g>
<g transform="translate(609 990) rotate(45) scale(0.7)"><path d="M0 0C-17 -15 -17 -34 0 -51C17 -34 17 -15 0 0Z" fill="#123654" fill-opacity=".55" stroke="#84CDFF" stroke-width="1"/><path d="M0 0V-46M0 -13L-9 -26M0 -24L8 -36" fill="none" stroke="#84CDFF" stroke-width=".7" opacity=".6"/></g>
<g transform="translate(601 1110) rotate(-38) scale(0.7)"><path d="M0 0C-17 -15 -17 -34 0 -51C17 -34 17 -15 0 0Z" fill="#123654" fill-opacity=".55" stroke="#84CDFF" stroke-width="1"/><path d="M0 0V-46M0 -13L-9 -26M0 -24L8 -36" fill="none" stroke="#84CDFF" stroke-width=".7" opacity=".6"/></g>
<g transform="translate(594 1200) rotate(40) scale(0.7)"><path d="M0 0C-17 -15 -17 -34 0 -51C17 -34 17 -15 0 0Z" fill="#123654" fill-opacity=".55" stroke="#84CDFF" stroke-width="1"/><path d="M0 0V-46M0 -13L-9 -26M0 -24L8 -36" fill="none" stroke="#84CDFF" stroke-width=".7" opacity=".6"/></g>
<g transform="translate(600 370) rotate(0) scale(1)"><path d="M0 0C-17 -15 -17 -34 0 -51C17 -34 17 -15 0 0Z" fill="#123654" fill-opacity=".55" stroke="#84CDFF" stroke-width="1"/><path d="M0 0V-46M0 -13L-9 -26M0 -24L8 -36" fill="none" stroke="#84CDFF" stroke-width=".7" opacity=".6"/></g>
<path d="M600 1240C585 1340 450 1340 490 1420" fill="none" stroke="url(#branch)" stroke-width="1.6" opacity="0.75"/>
<g class="motion"><circle opacity="0" r="7" fill="#58A6FF" filter="url(#glow)"><animateMotion path="M600 1240C585 1340 450 1340 490 1420" dur="8s" begin="-3.0s" repeatCount="indefinite"/><animate attributeName="opacity" values="0;.7;.7;0" keyTimes="0;.08;.9;1" dur="8s" begin="-3.0s" repeatCount="indefinite"/></circle><circle opacity="0" r="2.8" fill="#D9F7FF"><animateMotion path="M600 1240C585 1340 450 1340 490 1420" dur="8s" begin="-3.0s" repeatCount="indefinite"/><animate attributeName="opacity" values="0;1;1;0" keyTimes="0;.08;.9;1" dur="8s" begin="-3.0s" repeatCount="indefinite"/></circle></g>
<g transform="translate(490 1420) rotate(-60) scale(0.55)"><path d="M0 0C-17 -15 -17 -34 0 -51C17 -34 17 -15 0 0Z" fill="#123654" fill-opacity=".55" stroke="#84CDFF" stroke-width="1"/><path d="M0 0V-46M0 -13L-9 -26M0 -24L8 -36" fill="none" stroke="#84CDFF" stroke-width=".7" opacity=".6"/></g>
<path d="M500 1347Q470 1380 460 1455" fill="none" stroke="url(#branch)" stroke-width="0.7" opacity="0.4"/>
<path d="M600 1240C585 1340 450 1340 390 1392" fill="none" stroke="url(#branch)" stroke-width="1.6" opacity="0.75"/>
<g class="motion"><circle opacity="0" r="7" fill="#58A6FF" filter="url(#glow)"><animateMotion path="M600 1240C585 1340 450 1340 390 1392" dur="9s" begin="-4.8s" repeatCount="indefinite"/><animate attributeName="opacity" values="0;.7;.7;0" keyTimes="0;.08;.9;1" dur="9s" begin="-4.8s" repeatCount="indefinite"/></circle><circle opacity="0" r="2.8" fill="#D9F7FF"><animateMotion path="M600 1240C585 1340 450 1340 390 1392" dur="9s" begin="-4.8s" repeatCount="indefinite"/><animate attributeName="opacity" values="0;1;1;0" keyTimes="0;.08;.9;1" dur="9s" begin="-4.8s" repeatCount="indefinite"/></circle></g>
<g transform="translate(390 1392) rotate(-60) scale(0.55)"><path d="M0 0C-17 -15 -17 -34 0 -51C17 -34 17 -15 0 0Z" fill="#123654" fill-opacity=".55" stroke="#84CDFF" stroke-width="1"/><path d="M0 0V-46M0 -13L-9 -26M0 -24L8 -36" fill="none" stroke="#84CDFF" stroke-width=".7" opacity=".6"/></g>
<path d="M500 1347Q400 1380 360 1427" fill="none" stroke="url(#branch)" stroke-width="0.7" opacity="0.4"/>
<path d="M600 1240C585 1340 450 1340 290 1364" fill="none" stroke="url(#branch)" stroke-width="1.6" opacity="0.75"/>
<g class="motion"><circle opacity="0" r="7" fill="#58A6FF" filter="url(#glow)"><animateMotion path="M600 1240C585 1340 450 1340 290 1364" dur="10s" begin="-6.6s" repeatCount="indefinite"/><animate attributeName="opacity" values="0;.7;.7;0" keyTimes="0;.08;.9;1" dur="10s" begin="-6.6s" repeatCount="indefinite"/></circle><circle opacity="0" r="2.8" fill="#D9F7FF"><animateMotion path="M600 1240C585 1340 450 1340 290 1364" dur="10s" begin="-6.6s" repeatCount="indefinite"/><animate attributeName="opacity" values="0;1;1;0" keyTimes="0;.08;.9;1" dur="10s" begin="-6.6s" repeatCount="indefinite"/></circle></g>
<g transform="translate(290 1364) rotate(-60) scale(0.55)"><path d="M0 0C-17 -15 -17 -34 0 -51C17 -34 17 -15 0 0Z" fill="#123654" fill-opacity=".55" stroke="#84CDFF" stroke-width="1"/><path d="M0 0V-46M0 -13L-9 -26M0 -24L8 -36" fill="none" stroke="#84CDFF" stroke-width=".7" opacity=".6"/></g>
<path d="M500 1347Q330 1380 260 1399" fill="none" stroke="url(#branch)" stroke-width="0.7" opacity="0.4"/>
<path d="M600 1240C585 1340 450 1340 190 1336" fill="none" stroke="url(#branch)" stroke-width="1.6" opacity="0.75"/>
<g class="motion"><circle opacity="0" r="7" fill="#58A6FF" filter="url(#glow)"><animateMotion path="M600 1240C585 1340 450 1340 190 1336" dur="11s" begin="-8.4s" repeatCount="indefinite"/><animate attributeName="opacity" values="0;.7;.7;0" keyTimes="0;.08;.9;1" dur="11s" begin="-8.4s" repeatCount="indefinite"/></circle><circle opacity="0" r="2.8" fill="#D9F7FF"><animateMotion path="M600 1240C585 1340 450 1340 190 1336" dur="11s" begin="-8.4s" repeatCount="indefinite"/><animate attributeName="opacity" values="0;1;1;0" keyTimes="0;.08;.9;1" dur="11s" begin="-8.4s" repeatCount="indefinite"/></circle></g>
<g transform="translate(190 1336) rotate(-60) scale(0.55)"><path d="M0 0C-17 -15 -17 -34 0 -51C17 -34 17 -15 0 0Z" fill="#123654" fill-opacity=".55" stroke="#84CDFF" stroke-width="1"/><path d="M0 0V-46M0 -13L-9 -26M0 -24L8 -36" fill="none" stroke="#84CDFF" stroke-width=".7" opacity=".6"/></g>
<path d="M500 1347Q260 1380 160 1371" fill="none" stroke="url(#branch)" stroke-width="0.7" opacity="0.4"/>
<path d="M600 1240C615 1340 750 1340 710 1420" fill="none" stroke="url(#branch)" stroke-width="1.6" opacity="0.75"/>
<g class="motion"><circle opacity="0" r="7" fill="#58A6FF" filter="url(#glow)"><animateMotion path="M600 1240C615 1340 750 1340 710 1420" dur="8s" begin="-3.0s" repeatCount="indefinite"/><animate attributeName="opacity" values="0;.7;.7;0" keyTimes="0;.08;.9;1" dur="8s" begin="-3.0s" repeatCount="indefinite"/></circle><circle opacity="0" r="2.8" fill="#D9F7FF"><animateMotion path="M600 1240C615 1340 750 1340 710 1420" dur="8s" begin="-3.0s" repeatCount="indefinite"/><animate attributeName="opacity" values="0;1;1;0" keyTimes="0;.08;.9;1" dur="8s" begin="-3.0s" repeatCount="indefinite"/></circle></g>
<g transform="translate(710 1420) rotate(60) scale(0.55)"><path d="M0 0C-17 -15 -17 -34 0 -51C17 -34 17 -15 0 0Z" fill="#123654" fill-opacity=".55" stroke="#84CDFF" stroke-width="1"/><path d="M0 0V-46M0 -13L-9 -26M0 -24L8 -36" fill="none" stroke="#84CDFF" stroke-width=".7" opacity=".6"/></g>
<path d="M700 1347Q730 1380 740 1455" fill="none" stroke="url(#branch)" stroke-width="0.7" opacity="0.4"/>
<path d="M600 1240C615 1340 750 1340 810 1392" fill="none" stroke="url(#branch)" stroke-width="1.6" opacity="0.75"/>
<g class="motion"><circle opacity="0" r="7" fill="#58A6FF" filter="url(#glow)"><animateMotion path="M600 1240C615 1340 750 1340 810 1392" dur="9s" begin="-4.8s" repeatCount="indefinite"/><animate attributeName="opacity" values="0;.7;.7;0" keyTimes="0;.08;.9;1" dur="9s" begin="-4.8s" repeatCount="indefinite"/></circle><circle opacity="0" r="2.8" fill="#D9F7FF"><animateMotion path="M600 1240C615 1340 750 1340 810 1392" dur="9s" begin="-4.8s" repeatCount="indefinite"/><animate attributeName="opacity" values="0;1;1;0" keyTimes="0;.08;.9;1" dur="9s" begin="-4.8s" repeatCount="indefinite"/></circle></g>
<g transform="translate(810 1392) rotate(60) scale(0.55)"><path d="M0 0C-17 -15 -17 -34 0 -51C17 -34 17 -15 0 0Z" fill="#123654" fill-opacity=".55" stroke="#84CDFF" stroke-width="1"/><path d="M0 0V-46M0 -13L-9 -26M0 -24L8 -36" fill="none" stroke="#84CDFF" stroke-width=".7" opacity=".6"/></g>
<path d="M700 1347Q800 1380 840 1427" fill="none" stroke="url(#branch)" stroke-width="0.7" opacity="0.4"/>
<path d="M600 1240C615 1340 750 1340 910 1364" fill="none" stroke="url(#branch)" stroke-width="1.6" opacity="0.75"/>
<g class="motion"><circle opacity="0" r="7" fill="#58A6FF" filter="url(#glow)"><animateMotion path="M600 1240C615 1340 750 1340 910 1364" dur="10s" begin="-6.6s" repeatCount="indefinite"/><animate attributeName="opacity" values="0;.7;.7;0" keyTimes="0;.08;.9;1" dur="10s" begin="-6.6s" repeatCount="indefinite"/></circle><circle opacity="0" r="2.8" fill="#D9F7FF"><animateMotion path="M600 1240C615 1340 750 1340 910 1364" dur="10s" begin="-6.6s" repeatCount="indefinite"/><animate attributeName="opacity" values="0;1;1;0" keyTimes="0;.08;.9;1" dur="10s" begin="-6.6s" repeatCount="indefinite"/></circle></g>
<g transform="translate(910 1364) rotate(60) scale(0.55)"><path d="M0 0C-17 -15 -17 -34 0 -51C17 -34 17 -15 0 0Z" fill="#123654" fill-opacity=".55" stroke="#84CDFF" stroke-width="1"/><path d="M0 0V-46M0 -13L-9 -26M0 -24L8 -36" fill="none" stroke="#84CDFF" stroke-width=".7" opacity=".6"/></g>
<path d="M700 1347Q870 1380 940 1399" fill="none" stroke="url(#branch)" stroke-width="0.7" opacity="0.4"/>
<path d="M600 1240C615 1340 750 1340 1010 1336" fill="none" stroke="url(#branch)" stroke-width="1.6" opacity="0.75"/>
<g class="motion"><circle opacity="0" r="7" fill="#58A6FF" filter="url(#glow)"><animateMotion path="M600 1240C615 1340 750 1340 1010 1336" dur="11s" begin="-8.4s" repeatCount="indefinite"/><animate attributeName="opacity" values="0;.7;.7;0" keyTimes="0;.08;.9;1" dur="11s" begin="-8.4s" repeatCount="indefinite"/></circle><circle opacity="0" r="2.8" fill="#D9F7FF"><animateMotion path="M600 1240C615 1340 750 1340 1010 1336" dur="11s" begin="-8.4s" repeatCount="indefinite"/><animate attributeName="opacity" values="0;1;1;0" keyTimes="0;.08;.9;1" dur="11s" begin="-8.4s" repeatCount="indefinite"/></circle></g>
<g transform="translate(1010 1336) rotate(60) scale(0.55)"><path d="M0 0C-17 -15 -17 -34 0 -51C17 -34 17 -15 0 0Z" fill="#123654" fill-opacity=".55" stroke="#84CDFF" stroke-width="1"/><path d="M0 0V-46M0 -13L-9 -26M0 -24L8 -36" fill="none" stroke="#84CDFF" stroke-width=".7" opacity=".6"/></g>
<path d="M700 1347Q940 1380 1040 1371" fill="none" stroke="url(#branch)" stroke-width="0.7" opacity="0.4"/>
<circle cx="250" cy="1432" r="5" fill="#0D1117" stroke="#A3E3FF" stroke-width="1.5"/><text x="250" y="1472" text-anchor="middle" class="heading" font-size="23" fill="#D5E3F1">Clarity</text>
<circle cx="600" cy="1432" r="5" fill="#0D1117" stroke="#A3E3FF" stroke-width="1.5"/><text x="600" y="1472" text-anchor="middle" class="heading" font-size="23" fill="#D5E3F1">Usability</text>
<circle cx="950" cy="1432" r="5" fill="#0D1117" stroke="#A3E3FF" stroke-width="1.5"/><text x="950" y="1472" text-anchor="middle" class="heading" font-size="23" fill="#D5E3F1">Reliability</text>
<text x="600" y="1535" text-anchor="middle" font-size="16" letter-spacing="1" fill="#8DA9C0">Building practical digital products.</text></svg>